<svg xmlns:dc="http://purl.org/dc/elements/1.1/" xmlns:cc="http://creativecommons.org/ns#" xmlns:rdf="http://www.w3.org/1999/02/22-rdf-syntax-ns#" xmlns:svg="http://www.w3.org/2000/svg" xmlns="http://www.w3.org/2000/svg" xmlns:sodipodi="http://sodipodi.sourceforge.net/DTD/sodipodi-0.dtd" xmlns:inkscape="http://www.inkscape.org/namespaces/inkscape" version="1.1" x="0px" y="0px" viewBox="0 0 100 125"><g transform="translate(0,-952.36218)"><path style="text-indent:0;text-transform:none;direction:ltr;block-progression:tb;baseline-shift:baseline;color:#000000;enable-background:accumulate;" d="m 18,958.3622 c -1,-6e-5 -2,0.99994 -2,2 l 0,84 c 10e-5,1.0472 0.9528,1.9999 2,2 l 64,0 c 1.0471,-10e-5 1.9999,-0.9528 2,-2 l 0,-62 c 0,-0.53246 -0.2151,-1.06311 -0.5938,-1.4375 l -22,-22 C 61.0341,958.56471 60.5177,958.35817 60,958.3622 l -42,0 z m 2,4 38,0 0,20 a 2.0002002,2.0002002 0 0 0 2,2 l 20,0 0,58 -60,0 0,-80 z m 42,2.8125 15.1875,15.1875 -15.1875,0 0,-15.1875 z m -12,29.1875 c -14.8903,0 -27,12.1097 -27,27 0,2.6779 0.3946,5.2686 1.125,7.7188 a 1.8001769,1.8001769 0 0 0 1.7188,1.2812 l 48.3124,0 a 1.8001769,1.8001769 0 0 0 1.7188,-1.2812 c 0.7303,-2.4502 1.125,-5.0409 1.125,-7.7188 0,-14.8903 -12.1097,-27 -27,-27 z m -1.8125,3.65625 0,1.75 c 0,0.99405 0.8184,1.78125 1.8125,1.78125 0.9941,0 1.8125,-0.7872 1.8125,-1.78125 l 0,-1.75 c 5.115,0.38763 9.7732,2.42195 13.4375,5.56255 l -1.25,1.25 c -0.703,0.7029 -0.703,1.8282 0,2.5312 0.7029,0.7029 1.8283,0.7029 2.5312,0 l 1.25,-1.25 c 3.1405,3.6642 5.1748,8.3225 5.5626,13.4375 l -1.75,0 c -0.9941,0 -1.7813,0.8184 -1.7813,1.8125 0,0.9941 0.7871,1.8125 1.7813,1.8125 l 1.6874,0 c -0.1078,1.2271 -0.2863,2.426 -0.5624,3.5938 l -45.4376,0 c -0.2764,-1.1678 -0.4546,-2.3667 -0.5624,-3.5938 l 1.6874,0 c 0.9941,0 1.7813,-0.8184 1.7813,-1.8125 0,-0.9941 -0.7872,-1.8125 -1.7813,-1.8125 l -1.75,0 c 0.3878,-5.115 2.4219,-9.7733 5.5626,-13.4375 l 1.25,1.25 c 0.7029,0.7029 1.8282,0.7029 2.5312,0 0.7029,-0.703 0.7029,-1.8283 0,-2.5312 l -1.25,-1.25 c 3.6642,-3.1406 8.3225,-5.17492 13.4375,-5.56255 z m 12,12.25005 -9.6875,6.625 c -1.0847,-0.1561 -2.228,0.1656 -3.0625,1 -1.4059,1.4059 -1.4059,3.7191 0,5.125 1.4059,1.4059 3.7191,1.4059 5.125,0 0.8344,-0.8344 1.156,-1.9779 1,-3.0625 l 6.625,-9.6875 z" fill="#000000" fill-opacity="1" stroke="none" marker="none" visibility="visible" display="inline" overflow="visible"/></g><text x="0" y="115" fill="#000000" font-size="5px" font-weight="bold" font-family="'Helvetica Neue', Helvetica, Arial-Unicode, Arial, Sans-serif">Created by Aybige</text><text x="0" y="120" fill="#000000" font-size="5px" font-weight="bold" font-family="'Helvetica Neue', Helvetica, Arial-Unicode, Arial, Sans-serif">from the Noun Project</text></svg>